<svg width="235" height="56" viewBox="0 0 235 56" fill="none" xmlns="http://www.w3.org/2000/svg">
<g clip-path="url(#clip0)">
<path d="M19.0002 6L0 20.5969V30.8724L11.6056 21.9564L23.2111 30.8724V47H38V20.5969L19.0002 6Z" fill="#BE1E2D"/>
<path d="M12.7993 47H0V38.1067L6.39963 33.1899L12.7993 38.1067V47Z" fill="#BE1E2D"/>
</g>
<path d="M81.04 37.084C81.328 37.516 81.472 37.936 81.472 38.344C81.472 38.896 81.244 39.352 80.788 39.712C80.356 40.072 79.84 40.252 79.24 40.252C78.856 40.252 78.484 40.168 78.124 40C77.788 39.808 77.5 39.532 77.26 39.172L72.472 31.9C71.992 31.132 71.476 30.592 70.924 30.28C70.396 29.968 69.7 29.812 68.836 29.812H65.308V37.876C65.308 38.596 65.104 39.172 64.696 39.604C64.288 40.012 63.736 40.216 63.04 40.216C62.344 40.216 61.78 40.012 61.348 39.604C60.94 39.172 60.736 38.596 60.736 37.876V16.816C60.736 16.12 60.928 15.58 61.312 15.196C61.72 14.812 62.272 14.62 62.968 14.62H71.968C74.848 14.62 77.032 15.268 78.52 16.564C80.032 17.836 80.788 19.684 80.788 22.108C80.788 24.076 80.224 25.696 79.096 26.968C77.992 28.216 76.42 29.02 74.38 29.38C75.076 29.548 75.688 29.848 76.216 30.28C76.744 30.712 77.26 31.312 77.764 32.08L81.04 37.084ZM71.32 26.248C73.072 26.248 74.356 25.924 75.172 25.276C75.988 24.604 76.396 23.584 76.396 22.216C76.396 20.824 75.988 19.816 75.172 19.192C74.356 18.544 73.072 18.22 71.32 18.22H65.272V26.248H71.32ZM99.3033 35.176C99.7113 35.176 100.035 35.332 100.275 35.644C100.539 35.956 100.671 36.376 100.671 36.904C100.671 37.648 100.227 38.272 99.3393 38.776C98.5233 39.232 97.5993 39.604 96.5673 39.892C95.5353 40.156 94.5513 40.288 93.6152 40.288C90.7833 40.288 88.5393 39.472 86.8833 37.84C85.2273 36.208 84.3993 33.976 84.3993 31.144C84.3993 29.344 84.7593 27.748 85.4793 26.356C86.1993 24.964 87.2073 23.884 88.5033 23.116C89.8233 22.348 91.3113 21.964 92.9673 21.964C94.5513 21.964 95.9313 22.312 97.1073 23.008C98.2833 23.704 99.1953 24.688 99.8433 25.96C100.491 27.232 100.815 28.732 100.815 30.46C100.815 31.492 100.359 32.008 99.4473 32.008H88.8273C88.9713 33.664 89.4393 34.888 90.2313 35.68C91.0233 36.448 92.1753 36.832 93.6873 36.832C94.4553 36.832 95.1273 36.736 95.7033 36.544C96.3033 36.352 96.9753 36.088 97.7193 35.752C98.4393 35.368 98.9673 35.176 99.3033 35.176ZM93.0753 25.132C91.8513 25.132 90.8673 25.516 90.1233 26.284C89.4033 27.052 88.9713 28.156 88.8273 29.596H96.9633C96.9153 28.132 96.5553 27.028 95.8833 26.284C95.2113 25.516 94.2753 25.132 93.0753 25.132ZM112.128 21.964C114.576 21.964 116.388 22.576 117.564 23.8C118.764 25 119.364 26.836 119.364 29.308V38.092C119.364 38.74 119.172 39.256 118.788 39.64C118.404 40 117.876 40.18 117.204 40.18C116.58 40.18 116.064 39.988 115.656 39.604C115.272 39.22 115.08 38.716 115.08 38.092V37.3C114.672 38.236 114.024 38.968 113.136 39.496C112.272 40.024 111.264 40.288 110.112 40.288C108.936 40.288 107.868 40.048 106.908 39.568C105.948 39.088 105.192 38.428 104.64 37.588C104.088 36.748 103.812 35.812 103.812 34.78C103.812 33.484 104.136 32.464 104.784 31.72C105.456 30.976 106.536 30.436 108.024 30.1C109.512 29.764 111.564 29.596 114.18 29.596H115.08V28.768C115.08 27.592 114.828 26.74 114.324 26.212C113.82 25.66 113.004 25.384 111.876 25.384C111.18 25.384 110.472 25.492 109.752 25.708C109.032 25.9 108.18 26.188 107.196 26.572C106.572 26.884 106.116 27.04 105.828 27.04C105.396 27.04 105.036 26.884 104.748 26.572C104.484 26.26 104.352 25.852 104.352 25.348C104.352 24.94 104.448 24.592 104.64 24.304C104.856 23.992 105.204 23.704 105.684 23.44C106.524 22.984 107.52 22.624 108.672 22.36C109.848 22.096 111 21.964 112.128 21.964ZM111.012 37.048C112.212 37.048 113.184 36.652 113.928 35.86C114.696 35.044 115.08 34 115.08 32.728V31.972H114.432C112.824 31.972 111.576 32.044 110.688 32.188C109.8 32.332 109.164 32.584 108.78 32.944C108.396 33.304 108.204 33.796 108.204 34.42C108.204 35.188 108.468 35.824 108.996 36.328C109.548 36.808 110.22 37.048 111.012 37.048ZM126.17 40.216C125.522 40.216 124.982 40.036 124.55 39.676C124.142 39.292 123.938 38.752 123.938 38.056V16.564C123.938 15.868 124.142 15.34 124.55 14.98C124.982 14.62 125.522 14.44 126.17 14.44C126.818 14.44 127.358 14.62 127.79 14.98C128.222 15.34 128.438 15.868 128.438 16.564V38.056C128.438 38.752 128.222 39.292 127.79 39.676C127.358 40.036 126.818 40.216 126.17 40.216ZM135.382 40C134.926 40 134.554 39.868 134.266 39.604C134.002 39.34 133.87 38.992 133.87 38.56V16.06C133.87 15.628 134.002 15.28 134.266 15.016C134.554 14.752 134.926 14.62 135.382 14.62H148.846C149.278 14.62 149.614 14.728 149.854 14.944C150.094 15.16 150.214 15.46 150.214 15.844C150.214 16.228 150.094 16.528 149.854 16.744C149.614 16.96 149.278 17.068 148.846 17.068H136.786V25.888H148.126C148.558 25.888 148.894 25.996 149.134 26.212C149.374 26.428 149.494 26.728 149.494 27.112C149.494 27.496 149.374 27.796 149.134 28.012C148.894 28.228 148.558 28.336 148.126 28.336H136.786V37.552H148.846C149.278 37.552 149.614 37.66 149.854 37.876C150.094 38.068 150.214 38.368 150.214 38.776C150.214 39.16 150.094 39.46 149.854 39.676C149.614 39.892 149.278 40 148.846 40H135.382ZM160.295 40.252C159.191 40.252 158.135 40.12 157.127 39.856C156.143 39.592 155.267 39.22 154.499 38.74C154.067 38.452 153.755 38.188 153.563 37.948C153.395 37.684 153.311 37.372 153.311 37.012C153.311 36.7 153.395 36.448 153.563 36.256C153.755 36.04 153.995 35.932 154.283 35.932C154.571 35.932 154.991 36.112 155.543 36.472C156.263 36.904 156.971 37.252 157.667 37.516C158.387 37.756 159.275 37.876 160.331 37.876C161.627 37.876 162.635 37.648 163.355 37.192C164.075 36.736 164.435 36.076 164.435 35.212C164.435 34.684 164.303 34.264 164.039 33.952C163.775 33.616 163.319 33.328 162.671 33.088C162.023 32.824 161.075 32.56 159.827 32.296C157.715 31.84 156.203 31.228 155.291 30.46C154.379 29.692 153.923 28.648 153.923 27.328C153.923 26.296 154.211 25.384 154.787 24.592C155.363 23.8 156.155 23.176 157.163 22.72C158.195 22.264 159.359 22.036 160.655 22.036C161.591 22.036 162.491 22.168 163.355 22.432C164.243 22.672 165.023 23.02 165.695 23.476C166.511 24.052 166.919 24.652 166.919 25.276C166.919 25.588 166.823 25.852 166.631 26.068C166.439 26.284 166.211 26.392 165.947 26.392C165.659 26.392 165.227 26.188 164.651 25.78C163.979 25.348 163.343 25.012 162.743 24.772C162.143 24.532 161.399 24.412 160.511 24.412C159.383 24.412 158.471 24.664 157.775 25.168C157.103 25.672 156.767 26.344 156.767 27.184C156.767 27.712 156.887 28.144 157.127 28.48C157.391 28.792 157.811 29.08 158.387 29.344C158.987 29.584 159.839 29.824 160.943 30.064C162.575 30.424 163.835 30.82 164.723 31.252C165.635 31.684 166.283 32.212 166.667 32.836C167.051 33.46 167.243 34.252 167.243 35.212C167.243 36.724 166.607 37.948 165.335 38.884C164.063 39.796 162.383 40.252 160.295 40.252ZM179.613 37.876C180.453 37.948 180.873 38.332 180.873 39.028C180.873 39.436 180.717 39.748 180.405 39.964C180.117 40.156 179.673 40.228 179.073 40.18L178.101 40.108C176.181 39.964 174.765 39.388 173.853 38.38C172.941 37.372 172.485 35.848 172.485 33.808V24.772H170.073C169.665 24.772 169.341 24.676 169.101 24.484C168.885 24.268 168.776 23.992 168.776 23.656C168.776 23.296 168.885 23.008 169.101 22.792C169.341 22.576 169.665 22.468 170.073 22.468H172.485V18.4C172.485 17.944 172.617 17.596 172.881 17.356C173.145 17.092 173.505 16.96 173.961 16.96C174.393 16.96 174.741 17.092 175.005 17.356C175.269 17.596 175.401 17.944 175.401 18.4V22.468H179.396C179.781 22.468 180.081 22.576 180.297 22.792C180.537 23.008 180.657 23.296 180.657 23.656C180.657 23.992 180.537 24.268 180.297 24.484C180.081 24.676 179.781 24.772 179.396 24.772H175.401V33.952C175.401 35.272 175.665 36.232 176.193 36.832C176.745 37.408 177.561 37.732 178.641 37.804L179.613 37.876ZM190.911 22.036C195.303 22.036 197.499 24.34 197.499 28.948V38.74C197.499 39.172 197.367 39.52 197.103 39.784C196.863 40.048 196.527 40.18 196.095 40.18C195.663 40.18 195.315 40.048 195.051 39.784C194.787 39.52 194.655 39.172 194.655 38.74V37.012C194.199 38.044 193.503 38.848 192.567 39.424C191.631 39.976 190.551 40.252 189.327 40.252C188.199 40.252 187.155 40.024 186.195 39.568C185.259 39.112 184.515 38.476 183.963 37.66C183.411 36.844 183.135 35.944 183.135 34.96C183.135 33.64 183.471 32.62 184.143 31.9C184.815 31.156 185.919 30.628 187.455 30.316C188.991 29.98 191.127 29.812 193.863 29.812H194.655V28.624C194.655 27.184 194.355 26.128 193.755 25.456C193.179 24.784 192.231 24.448 190.911 24.448C189.279 24.448 187.623 24.892 185.943 25.78C185.295 26.188 184.839 26.392 184.575 26.392C184.287 26.392 184.047 26.284 183.855 26.068C183.663 25.852 183.567 25.576 183.567 25.24C183.567 24.904 183.663 24.616 183.855 24.376C184.071 24.112 184.407 23.848 184.863 23.584C185.703 23.104 186.651 22.732 187.707 22.468C188.787 22.18 189.855 22.036 190.911 22.036ZM189.723 37.948C191.163 37.948 192.339 37.468 193.251 36.508C194.187 35.524 194.655 34.264 194.655 32.728V31.684H194.007C191.895 31.684 190.287 31.78 189.183 31.972C188.079 32.14 187.287 32.44 186.807 32.872C186.351 33.28 186.123 33.892 186.123 34.708C186.123 35.644 186.459 36.424 187.131 37.048C187.827 37.648 188.691 37.948 189.723 37.948ZM210.937 37.876C211.777 37.948 212.197 38.332 212.197 39.028C212.197 39.436 212.041 39.748 211.729 39.964C211.441 40.156 210.997 40.228 210.397 40.18L209.425 40.108C207.505 39.964 206.089 39.388 205.177 38.38C204.265 37.372 203.809 35.848 203.809 33.808V24.772H201.397C200.989 24.772 200.665 24.676 200.425 24.484C200.209 24.268 200.101 23.992 200.101 23.656C200.101 23.296 200.209 23.008 200.425 22.792C200.665 22.576 200.989 22.468 201.397 22.468H203.809V18.4C203.809 17.944 203.941 17.596 204.205 17.356C204.469 17.092 204.829 16.96 205.285 16.96C205.717 16.96 206.065 17.092 206.329 17.356C206.593 17.596 206.725 17.944 206.725 18.4V22.468H210.721C211.105 22.468 211.405 22.576 211.621 22.792C211.861 23.008 211.981 23.296 211.981 23.656C211.981 23.992 211.861 24.268 211.621 24.484C211.405 24.676 211.105 24.772 210.721 24.772H206.725V33.952C206.725 35.272 206.989 36.232 207.517 36.832C208.069 37.408 208.885 37.732 209.965 37.804L210.937 37.876ZM228.643 35.932C228.907 35.932 229.135 36.04 229.327 36.256C229.519 36.472 229.615 36.748 229.615 37.084C229.615 37.684 229.195 38.236 228.355 38.74C227.491 39.244 226.579 39.628 225.619 39.892C224.659 40.132 223.723 40.252 222.811 40.252C220.099 40.252 217.951 39.448 216.367 37.84C214.807 36.232 214.027 34.012 214.027 31.18C214.027 29.38 214.375 27.796 215.071 26.428C215.767 25.036 216.739 23.956 217.987 23.188C219.259 22.42 220.699 22.036 222.307 22.036C224.587 22.036 226.399 22.78 227.743 24.268C229.087 25.756 229.759 27.772 229.759 30.316C229.759 30.796 229.663 31.144 229.471 31.36C229.279 31.576 228.967 31.684 228.535 31.684H216.943C217.159 35.812 219.115 37.876 222.811 37.876C223.747 37.876 224.551 37.756 225.223 37.516C225.895 37.252 226.615 36.904 227.383 36.472C228.007 36.112 228.427 35.932 228.643 35.932ZM222.343 24.304C220.807 24.304 219.571 24.784 218.635 25.744C217.723 26.704 217.183 28.06 217.015 29.812H227.203C227.155 28.036 226.711 26.68 225.871 25.744C225.031 24.784 223.855 24.304 222.343 24.304Z" fill="black"/>
<defs>
<clipPath id="clip0">
<rect width="38" height="41" fill="white" transform="translate(0 6)"/>
</clipPath>
</defs>
</svg>
